<svg id="Capa_1" enable-background="new 0 0 497 497" height="512" viewBox="0 0 497 497" width="512" xmlns="http://www.w3.org/2000/svg"><g><path d="m348.59 439.986-24.071-47.866-75.271-10-76.273 10-24.071 47.866 100.344 10z" fill="#d0cdd3"/><path d="m35 392.12c-19.25 0-35-15.784-35-35.076v-309.968c0-19.292 15.75-35.076 35-35.076h427c19.25 0 35 15.784 35 35.076v309.969c0 19.292-15.75 35.076-35 35.076h-427z" fill="#e0dee2"/><path d="m48 392.12h-13c-19.25 0-35-15.78-35-35.08v-309.96c0-19.3 15.75-35.08 35-35.08h13c-19.25 0-35 15.78-35 35.08v309.96c0 19.3 15.75 35.08 35 35.08z" fill="#d0cdd3"/><path d="m447.56 42.486c10.692 0 19.44 8.767 19.44 19.482v279.724c0 10.715-8.748 19.482-19.44 19.482h-400.12c-10.692 0-19.44-8.767-19.44-19.482v-279.724c0-10.715 8.748-19.482 19.44-19.482z" fill="#f9f8f8"/><path d="m72.44 361.17h-25c-10.69 0-19.44-8.76-19.44-19.48v-279.72c0-10.72 8.75-19.48 19.44-19.48h25c-10.69 0-19.44 8.76-19.44 19.48v279.72c0 10.72 8.75 19.48 19.44 19.48z" fill="#ede8e5"/><path d="m378.987 485h-259.477c-12.401 0-22.455-10.076-22.455-22.507s10.054-22.507 22.455-22.507h259.478c12.401 0 22.455 10.076 22.455 22.507s-10.054 22.507-22.456 22.507z" fill="#e0dee2"/><path d="m139.51 485h-20c-12.4 0-22.46-10.08-22.46-22.51s10.06-22.5 22.46-22.5h20c-12.4 0-22.46 10.07-22.46 22.5s10.06 22.51 22.46 22.51z" fill="#d0cdd3"/><path d="m293.69 135.32-63.59 145.59c-2.58 5.9-8.35 9.42-14.4 9.42-2.1 0-4.23-.42-6.28-1.32-.42-.18-.83-.39-1.23-.6-7.09-3.85-10.17-12.55-6.88-20.08l63.59-145.58c3.28-7.49 11.69-11.14 19.3-8.62.46.15.92.32 1.38.52 7.95 3.47 11.58 12.72 8.11 20.67z" fill="#f7f06d"/><path d="m284.2 114.13-75.29 172.36c-.28.63-.52 1.27-.72 1.92-7.09-3.85-10.17-12.55-6.88-20.08l63.59-145.58c3.28-7.49 11.69-11.14 19.3-8.62z" fill="#ed5"/><path d="m154.292 284.671c-4.019 0-8.039-1.533-11.105-4.599l-58.892-58.892c-6.132-6.133-6.132-16.077 0-22.21l57.794-57.794c5.979-5.979 15.719-6.529 21.973-.838 6.678 6.077 6.861 16.424.55 22.735l-43.467 43.466c-1.953 1.953-1.953 5.118 0 7.071l44.252 44.251c6.132 6.133 6.132 16.077 0 22.21-3.066 3.067-7.086 4.6-11.105 4.6z" fill="#f7f06d"/><path d="m164.29 281.07c-2.89 2.4-6.45 3.6-10 3.6-4.02 0-8.04-1.53-11.1-4.6l-58.89-58.89c-6.14-6.13-6.14-16.08 0-22.21l57.79-57.79c5.82-5.82 15.2-6.5 21.46-1.29-.51.39-.99.82-1.46 1.29l-57.79 57.79c-6.14 6.13-6.14 16.08 0 22.21l58.89 58.89c.35.35.72.69 1.1 1z" fill="#ed5"/><path d="m410.7 221.18-58.89 58.89c-6.13 6.13-16.07 6.13-22.21 0-1.26-1.26-2.26-2.69-3-4.21-2.87-5.85-1.87-13.13 3-18l44.254-44.254c1.953-1.953 1.953-5.118 0-7.071l-43.464-43.465c-4.87-4.87-5.87-12.14-3-18 .73-1.52 1.74-2.95 3-4.21 6.13-6.13 16.07-6.13 22.21 0l58.1 58.11c6.14 6.13 6.14 16.08 0 22.21z" fill="#f7f06d"/><path d="m393.85 213.61-65.07 65.57c-.88-1.03-1.61-2.15-2.18-3.32-2.87-5.85-1.87-13.13 3-18l44.25-44.25c1.96-1.96 1.96-5.12 0-7.08l-43.46-43.46c-4.87-4.87-5.87-12.14-3-18 .58-1.2 1.33-2.35 2.25-3.4l64.21 64.86c1.96 1.96 1.96 5.12 0 7.08z" fill="#ed5"/></g></svg>